<svg id="Layer_1" data-name="Layer 1" xmlns="http://www.w3.org/2000/svg" viewBox="0 0 520 498.82"><defs><style>.cls-1{fill:none;stroke:#000;stroke-miterlimit:10;stroke-width:8px;}</style></defs><title>15</title><path class="cls-1" d="M400,64a111,111,0,0,0-15.79,1.13,158.76,158.76,0,0,0-256.42,0A112,112,0,1,0,112,288a110.83,110.83,0,0,0,39.71-7.33,159.17,159.17,0,0,0,75.1,36.52L192,352l32,32-32,96,96-96-32-32,11-33a158.41,158.41,0,0,0,93.29-38.33A110.83,110.83,0,0,0,400,288a112,112,0,0,0,0-224Zm0,192a79.51,79.51,0,0,1-45.94-14.67,127.78,127.78,0,0,1-75.87,44.1L256,288c-39.62,0-74.58-18.37-98.06-46.67a80,80,0,1,1-15.5-139.25C163.67,60.67,206.29,32,256,32s92.33,28.67,113.54,70.08A80,80,0,1,1,400,256Z" transform="translate(4 4.01)"/></svg>