<svg id="Layer_1" data-name="Layer 1" xmlns="http://www.w3.org/2000/svg" viewBox="0 0 512 480"><defs><style>.cls-1{fill:#1d1d1b;}</style></defs><title>16</title><path class="cls-1" d="M400,64a111,111,0,0,0-15.79,1.13,158.76,158.76,0,0,0-256.42,0A111,111,0,0,0,112,64a112,112,0,0,0,0,224,110.83,110.83,0,0,0,39.71-7.33,159.93,159.93,0,0,0,40.92,25.42l24.92-24.87a128.73,128.73,0,0,1-59.6-39.88,80,80,0,1,1-15.5-139.25C163.67,60.67,206.29,32,256,32s92.33,28.67,113.54,70.08a80,80,0,1,1-15.48,139.25,130.53,130.53,0,0,1-37.62,30.58L303,312.25a159.32,159.32,0,0,0,57.29-31.58A110.83,110.83,0,0,0,400,288a112,112,0,0,0,0-224ZM192,352l32,32-32,96,96-96-32-32,32-96Z"/></svg>