<svg id="Layer_1" data-name="Layer 1" xmlns="http://www.w3.org/2000/svg" viewBox="0 0 416 416"><defs><style>.cls-1{fill:#1d1d1b;}</style></defs><title>01d</title><path class="cls-1" d="M256,144A112,112,0,1,0,368,256,112.14,112.14,0,0,0,256,144Zm0,192a80,80,0,1,1,80-80A80,80,0,0,1,256,336Zm0-224a16,16,0,0,0,16-16V64a16,16,0,0,0-32,0V96A16,16,0,0,0,256,112Zm0,288a16,16,0,0,0-16,16v32a16,16,0,0,0,32,0V416A16,16,0,0,0,256,400ZM380.44,154.17l22.63-22.62a16,16,0,1,0-22.62-22.62l-22.62,22.62a16,16,0,0,0,22.63,22.63ZM131.56,357.83l-22.62,22.63a16,16,0,0,0,22.62,22.62l22.63-22.62a16,16,0,0,0-22.62-22.62ZM112,256a16,16,0,0,0-16-16H64a16,16,0,0,0,0,32H96A16,16,0,0,0,112,256Zm336-16H416a16,16,0,0,0,0,32h32a16,16,0,0,0,0-32ZM131.54,154.17a16,16,0,0,0,22.63-22.62l-22.62-22.62a16,16,0,1,0-22.62,22.62ZM380.46,357.81a16,16,0,0,0-22.62,22.63l22.63,22.63a16,16,0,0,0,22.62-22.62Z" transform="translate(-48 -48)"/></svg>