<svg id="Layer_1" data-name="Layer 1" xmlns="http://www.w3.org/2000/svg" viewBox="0 0 424 424" style=""><defs><style>.cls-1{fill:none;stroke:#09000f;stroke-miterlimit:10;stroke-width:8px;}</style></defs><title>01d</title><path class="cls-1 dQyYNESD_0" d="M208,96A112,112,0,1,0,320,208,112,112,0,0,0,208,96Zm0,192a80,80,0,1,1,80-80A80,80,0,0,1,208,288Zm0-224a16,16,0,0,0,16-16V16a16,16,0,0,0-32,0V48A16,16,0,0,0,208,64Zm0,288a16,16,0,0,0-16,16v32a16,16,0,0,0,32,0V368A16,16,0,0,0,208,352ZM332.44,106.17l22.63-22.62a16,16,0,0,0-22-23.2l-.58.58L309.83,83.55a16,16,0,0,0,22.63,22.63ZM83.56,309.83,60.94,332.46a16,16,0,0,0,22.62,22.62l22.63-22.62a16,16,0,0,0-22.62-22.62ZM64,208a16,16,0,0,0-16-16H16a16,16,0,0,0,0,32H48A16,16,0,0,0,64,208Zm336-16H368a16,16,0,0,0,0,32h32a16,16,0,0,0,0-32ZM83.54,106.17a16,16,0,0,0,22.63-22.62L83.55,60.93a16,16,0,0,0-23.2,22l.58.58ZM332.46,309.81a16,16,0,0,0-22.62,22.63l22.63,22.63a16,16,0,0,0,22.62-22.62Z" transform="translate(4 4)"></path><style>.dQyYNESD_0{stroke-dasharray:2519 2521;stroke-dashoffset:2520;animation:dQyYNESD_draw_0 9200ms ease-in-out 0ms infinite,dQyYNESD_fade 9200ms linear 0ms infinite;}@keyframes dQyYNESD_draw{100%{stroke-dashoffset:0;}}@keyframes dQyYNESD_fade{0%{stroke-opacity:1;}95.65217391304348%{stroke-opacity:1;}100%{stroke-opacity:0;}}@keyframes dQyYNESD_draw_0{8.695652173913043%{stroke-dashoffset: 2520}63.04347826086957%{ stroke-dashoffset: 0;}100%{ stroke-dashoffset: 0;}}</style></svg>