<svg id="Layer_1" data-name="Layer 1" xmlns="http://www.w3.org/2000/svg" viewBox="0 0 520 481.22" style=""><defs><style>.cls-1{fill:none;stroke:#000;stroke-miterlimit:10;stroke-width:8px;}</style></defs><title>02n</title><path class="cls-1 JaoSGybk_0" d="M435.06,223.36a124.59,124.59,0,0,0,14.23-11.6,126.57,126.57,0,0,0,29.79-47.85,16,16,0,0,0-20.39-20.42c-35.4,12.5-73.69,4-99.9-22.25S324,56.71,336.54,21.33A16,16,0,0,0,316.12.89a127,127,0,0,0-47.83,29.83c-33.54,33.5-44,81-32.48,123.79a158.7,158.7,0,0,0-108,63.79,112,112,0,1,0,23.9,215.56,157.93,157.93,0,0,0,208.58,0A110.83,110.83,0,0,0,400,441.19a112.14,112.14,0,0,0,112-112C512,279.75,479.58,238.19,435.06,223.36Zm-144.15-170a84.19,84.19,0,0,1,8.15-7.23A127.46,127.46,0,0,0,433.92,181c-13.79,17.58-32.79,28.52-53.13,33.19a158.33,158.33,0,0,0-112-60.19c-12.23-34-5-73.44,22.13-100.6Z" transform="translate(4 4.03)"></path><style>.JaoSGybk_0{stroke-dasharray:2206 2208;stroke-dashoffset:2207;animation:JaoSGybk_draw_0 9200ms ease-in-out 0ms infinite,JaoSGybk_fade 9200ms linear 0ms infinite;}@keyframes JaoSGybk_draw{100%{stroke-dashoffset:0;}}@keyframes JaoSGybk_fade{0%{stroke-opacity:1;}95.65217391304348%{stroke-opacity:1;}100%{stroke-opacity:0;}}@keyframes JaoSGybk_draw_0{8.695652173913043%{stroke-dashoffset: 2207}63.04347826086957%{ stroke-dashoffset: 0;}100%{ stroke-dashoffset: 0;}}</style></svg>