<svg id="Layer_1" data-name="Layer 1" xmlns="http://www.w3.org/2000/svg" viewBox="0 0 512 473.19"><defs><style>.cls-1{fill:#1d1d1b;}</style></defs><title>02n</title><path class="cls-1" d="M435.06,262.17c4.88-3.62,9.81-7.19,14.23-11.6a126.57,126.57,0,0,0,29.79-47.85,16,16,0,0,0-20.39-20.42c-35.4,12.5-73.69,4-99.9-22.25S324,95.52,336.54,60.14a16,16,0,0,0-20.42-20.44,127,127,0,0,0-47.83,29.83c-33.54,33.5-44,81-32.48,123.79a158.7,158.7,0,0,0-108,63.79A110.94,110.94,0,0,0,112,256a112,112,0,1,0,0,224,110.83,110.83,0,0,0,39.71-7.33,157.93,157.93,0,0,0,208.58,0A110.83,110.83,0,0,0,400,480,112.14,112.14,0,0,0,512,368C512,318.56,479.58,277,435.06,262.17Zm-144.15-170a84.19,84.19,0,0,1,8.15-7.23A127.46,127.46,0,0,0,433.92,219.77c-13.79,17.58-32.79,28.52-53.13,33.19a158.33,158.33,0,0,0-112-60.19C256.56,158.81,263.75,119.33,290.92,92.17Z" transform="translate(0 -38.81)"/></svg>