<svg id="Layer_1" data-name="Layer 1" xmlns="http://www.w3.org/2000/svg" viewBox="0 0 512 320"><defs><style>.cls-1{fill:#1d1d1b;}</style></defs><title>03d</title><path class="cls-1" d="M400,160a111,111,0,0,0-15.79,1.13,158.76,158.76,0,0,0-256.42,0A111,111,0,0,0,112,160a112,112,0,0,0,0,224,110.83,110.83,0,0,0,39.71-7.33,157.93,157.93,0,0,0,208.58,0A110.83,110.83,0,0,0,400,384a112,112,0,0,0,0-224Zm0,192a79.51,79.51,0,0,1-45.94-14.67C330.58,365.62,295.62,384,256,384s-74.58-18.38-98.06-46.67a80,80,0,1,1-15.5-139.25C163.67,156.67,206.29,128,256,128s92.33,28.67,113.54,70.08A80,80,0,1,1,400,352Z" transform="translate(0 -96)"/></svg>