<svg id="Layer_1" data-name="Layer 1" xmlns="http://www.w3.org/2000/svg" viewBox="0 0 653 417.01" style=""><defs><style>.cls-1{fill:none;stroke:#000;stroke-miterlimit:10;stroke-width:16px;}</style></defs><title>04n</title><path class="cls-1 vqFMZvbf_0" d="M637,178.28c-1.21,60.83-51.56,109.94-112.4,109.72A110.38,110.38,0,0,1,508,286.7,112,112,0,0,0,384.21,146.13a158.76,158.76,0,0,0-221.84-34.58q-2.89,2.12-5.69,4.36-.81.63-1.59,1.29c-1.53,1.25-3,2.54-4.5,3.84-.46.41-.91.81-1.36,1.23l-.27.24c-.63.57-1.26,1.16-1.88,1.75l-.13.11c-.68.65-1.35,1.29-2,1.94s-1.35,1.34-2,2q-3.88,3.95-7.5,8.16a1.56,1.56,0,0,1-2.64-1.58,111.93,111.93,0,0,1,120-69.78,158.76,158.76,0,0,1,256.42,0A111.93,111.93,0,0,1,637,178.28Z" transform="translate(8 8.01)"></path><path class="cls-1 vqFMZvbf_1" d="M512,257A111.88,111.88,0,0,1,400,369a110.94,110.94,0,0,1-39.71-7.33,157.94,157.94,0,0,1-208.58,0,112,112,0,1,1-23.92-215.54c.66-.91,1.34-1.81,2-2.71,1.8-2.36,3.67-4.68,5.6-6.93q3.62-4.21,7.5-8.16c.67-.68,1.34-1.35,2-2s1.33-1.29,2-1.94l.13-.11c.62-.59,1.25-1.18,1.88-1.75l.27-.24c.45-.42.9-.82,1.36-1.23,1.47-1.3,3-2.59,4.5-3.84q.78-.66,1.59-1.29,2.79-2.25,5.69-4.36a158.76,158.76,0,0,1,221.84,34.58A111.93,111.93,0,0,1,512,257Z" transform="translate(8 8.01)"></path><path class="cls-1 vqFMZvbf_2" d="M156.68,115.91c-.53.42-1.07.85-1.59,1.29" transform="translate(8 8.01)"></path><style>.vqFMZvbf_0{stroke-dasharray:1346 1348;stroke-dashoffset:1347;animation:vqFMZvbf_draw_0 9200ms ease-in-out 0ms infinite,vqFMZvbf_fade 9200ms linear 0ms infinite;}.vqFMZvbf_1{stroke-dasharray:1344 1346;stroke-dashoffset:1345;animation:vqFMZvbf_draw_1 9200ms ease-in-out 0ms infinite,vqFMZvbf_fade 9200ms linear 0ms infinite;}.vqFMZvbf_2{stroke-dasharray:3 5;stroke-dashoffset:4;animation:vqFMZvbf_draw_2 9200ms ease-in-out 0ms infinite,vqFMZvbf_fade 9200ms linear 0ms infinite;}@keyframes vqFMZvbf_draw{100%{stroke-dashoffset:0;}}@keyframes vqFMZvbf_fade{0%{stroke-opacity:1;}95.65217391304348%{stroke-opacity:1;}100%{stroke-opacity:0;}}@keyframes vqFMZvbf_draw_0{8.695652173913043%{stroke-dashoffset: 1347}35.84940652818991%{ stroke-dashoffset: 0;}100%{ stroke-dashoffset: 0;}}@keyframes vqFMZvbf_draw_1{35.84940652818991%{stroke-dashoffset: 1345}62.96284350406398%{ stroke-dashoffset: 0;}100%{ stroke-dashoffset: 0;}}@keyframes vqFMZvbf_draw_2{62.96284350406399%{stroke-dashoffset: 4}63.04347826086957%{ stroke-dashoffset: 0;}100%{ stroke-dashoffset: 0;}}</style></svg>