<svg id="Layer_1" data-name="Layer 1" xmlns="http://www.w3.org/2000/svg" viewBox="0 0 512 406.83"><defs><style>.cls-1{fill:#1d1d1b;}</style></defs><title>04d</title><path class="cls-1" d="M512,240a89.25,89.25,0,0,0-89.17-89.15c-2.4,0-4.77.1-7.15.29a122.56,122.56,0,0,0-191.38,0c-2.37-.19-4.77-.29-7.19-.29A89.24,89.24,0,0,0,128,240a92.08,92.08,0,0,0,1.5,15c-.54.71-1.19,1.35-1.71,2.08A110.94,110.94,0,0,0,112,256a112,112,0,1,0,0,224,110.83,110.83,0,0,0,39.71-7.33,157.93,157.93,0,0,0,208.58,0A110.83,110.83,0,0,0,400,480,112.14,112.14,0,0,0,512,368c0-25.69-9-49.08-23.67-68A88.45,88.45,0,0,0,512,240ZM400,448a79.51,79.51,0,0,1-45.94-14.67C330.58,461.63,295.62,480,256,480s-74.58-18.37-98.06-46.67a80,80,0,1,1-15.5-139.27c.56-1.06,1.25-2,1.81-3a129.69,129.69,0,0,1,20.67-28A126.07,126.07,0,0,1,256,224c49.71,0,92.33,28.67,113.54,70.06a81.06,81.06,0,0,1,17.88-4.81L400,288a80,80,0,0,1,0,160Zm65.56-170.37a110.41,110.41,0,0,0-81.35-20.5,158.28,158.28,0,0,0-221.15-34.79,56.76,56.76,0,0,1,75.81-35.15c15.19-29.56,45.63-50,81.13-50s66,20.46,81.08,50a56.95,56.95,0,0,1,64.48,90.44Z" transform="translate(0 -105.17)"/></svg>