<svg id="Layer_1" data-name="Layer 1" xmlns="http://www.w3.org/2000/svg" viewBox="0 0 637 401"><defs><style>.cls-1{fill:#02000f;}.cls-2{fill:#1d1d1b;}</style></defs><title>04n</title><path class="cls-1" d="M439,64a111,111,0,0,0-15.79,1.13,158.76,158.76,0,0,0-256.42,0A111,111,0,0,0,151,64a112,112,0,0,0,0,224,110.83,110.83,0,0,0,39.71-7.33,157.93,157.93,0,0,0,208.58,0A110.83,110.83,0,0,0,439,288a112,112,0,0,0,0-224Z" transform="translate(86)"/><path class="cls-2" d="M314,145a111,111,0,0,0-15.79,1.13,158.76,158.76,0,0,0-256.42,0A111,111,0,0,0,26,145a112,112,0,0,0,0,224,110.83,110.83,0,0,0,39.71-7.33,157.93,157.93,0,0,0,208.58,0A110.83,110.83,0,0,0,314,369a112,112,0,0,0,0-224Z" transform="translate(86)"/></svg>