<svg id="Layer_1" data-name="Layer 1" xmlns="http://www.w3.org/2000/svg" viewBox="0 0 528 528.01" style=""><defs><style>.cls-1{fill:none;stroke:#000;stroke-miterlimit:10;stroke-width:16px;}</style></defs><title>09n</title><path class="cls-1 BPPAvlMB_0" d="M400,64a111,111,0,0,0-15.79,1.13,158.76,158.76,0,0,0-256.42,0A112,112,0,1,0,112,288a110.83,110.83,0,0,0,39.71-7.33,157.93,157.93,0,0,0,208.58,0A110.83,110.83,0,0,0,400,288a112,112,0,0,0,0-224ZM225,480a32,32,0,0,0,64,0c0-17.69-32-64-32-64S225,462.31,225,480Zm127-32a32,32,0,0,0,64,0c0-17.69-32-64-32-64S352,430.31,352,448ZM96,384a32,32,0,0,0,64,0c0-17.69-32-64-32-64S96,366.31,96,384Z" transform="translate(8 8.01)"></path><style>.BPPAvlMB_0{stroke-dasharray:2078 2080;stroke-dashoffset:2079;animation:BPPAvlMB_draw_0 9200ms ease-in-out 0ms infinite,BPPAvlMB_fade 9200ms linear 0ms infinite;}@keyframes BPPAvlMB_draw{100%{stroke-dashoffset:0;}}@keyframes BPPAvlMB_fade{0%{stroke-opacity:1;}95.65217391304348%{stroke-opacity:1;}100%{stroke-opacity:0;}}@keyframes BPPAvlMB_draw_0{8.695652173913043%{stroke-dashoffset: 2079}63.04347826086957%{ stroke-dashoffset: 0;}100%{ stroke-dashoffset: 0;}}</style></svg>