<svg id="Layer_1" data-name="Layer 1" xmlns="http://www.w3.org/2000/svg" viewBox="0 0 512 448"><defs><style>.cls-1{fill:#1d1d1b;}</style></defs><title>10d</title><path class="cls-1" d="M400,96a111,111,0,0,0-15.79,1.13,158.76,158.76,0,0,0-256.42,0A111,111,0,0,0,112,96a112,112,0,0,0,0,224,110.83,110.83,0,0,0,39.71-7.33,157.93,157.93,0,0,0,208.58,0A110.83,110.83,0,0,0,400,320a112,112,0,0,0,0-224Zm0,192a79.51,79.51,0,0,1-45.94-14.67C330.58,301.63,295.62,320,256,320s-74.58-18.37-98.06-46.67a80,80,0,1,1-15.5-139.25C163.67,92.67,206.29,64,256,64s92.33,28.67,113.54,70.08A80,80,0,1,1,400,288ZM224,448a32,32,0,0,0,64,0c0-17.69-32-64-32-64S224,430.31,224,448Z" transform="translate(0 -32)"/></svg>