<svg id="Layer_1" data-name="Layer 1" xmlns="http://www.w3.org/2000/svg" viewBox="0 0 528 464.01" style=""><defs><style>.cls-1{fill:none;stroke:#000;stroke-miterlimit:10;stroke-width:16px;}</style></defs><title>10n</title><path class="cls-1 tOKcvgCd_0" d="M400,64a111,111,0,0,0-15.79,1.13,158.76,158.76,0,0,0-256.42,0A112,112,0,1,0,112,288a110.83,110.83,0,0,0,39.71-7.33,157.93,157.93,0,0,0,208.58,0A110.83,110.83,0,0,0,400,288a112,112,0,0,0,0-224ZM224,416a32,32,0,0,0,64,0c0-17.69-32-64-32-64S224,398.31,224,416Z" transform="translate(8 8.01)"></path><style>.tOKcvgCd_0{stroke-dasharray:1588 1590;stroke-dashoffset:1589;animation:tOKcvgCd_draw_0 9200ms ease-in-out 0ms infinite,tOKcvgCd_fade 9200ms linear 0ms infinite;}@keyframes tOKcvgCd_draw{100%{stroke-dashoffset:0;}}@keyframes tOKcvgCd_fade{0%{stroke-opacity:1;}95.65217391304348%{stroke-opacity:1;}100%{stroke-opacity:0;}}@keyframes tOKcvgCd_draw_0{8.695652173913043%{stroke-dashoffset: 1589}63.04347826086957%{ stroke-dashoffset: 0;}100%{ stroke-dashoffset: 0;}}</style></svg>