<svg id="Layer_1" data-name="Layer 1" xmlns="http://www.w3.org/2000/svg" viewBox="0 0 520 392" style=""><defs><style>.cls-1{fill:none;stroke:#000;stroke-miterlimit:10;stroke-width:8px;}</style></defs><title>12</title><path class="cls-1 wIInxiCC_0" d="M33.6,256A80.9,80.9,0,0,1,32,240a79.87,79.87,0,0,1,110.44-73.92C163.67,124.67,206.29,96,256,96s92.33,28.67,113.54,70.08A79.94,79.94,0,0,1,478.38,256h32A106.72,106.72,0,0,0,512,240,112.14,112.14,0,0,0,400,128a111,111,0,0,0-15.79,1.13,158.76,158.76,0,0,0-256.42,0A111,111,0,0,0,112,128,112.14,112.14,0,0,0,0,240a109.54,109.54,0,0,0,1.63,16ZM496,288H16a16,16,0,0,0,0,32H496a16,16,0,0,0,0-32Zm0,64H16a16,16,0,0,0,0,32H496a16,16,0,0,0,0-32Zm0,64H16a16,16,0,0,0,0,32H496a16,16,0,0,0,0-32Z" transform="translate(4 -60)"></path><style>.wIInxiCC_0{stroke-dasharray:4587 4589;stroke-dashoffset:4588;animation:wIInxiCC_draw_0 9200ms ease-in-out 0ms infinite,wIInxiCC_fade 9200ms linear 0ms infinite;}@keyframes wIInxiCC_draw{100%{stroke-dashoffset:0;}}@keyframes wIInxiCC_fade{0%{stroke-opacity:1;}95.65217391304348%{stroke-opacity:1;}100%{stroke-opacity:0;}}@keyframes wIInxiCC_draw_0{8.695652173913043%{stroke-dashoffset: 4588}63.04347826086957%{ stroke-dashoffset: 0;}100%{ stroke-dashoffset: 0;}}</style></svg>