<svg id="Layer_1" data-name="Layer 1" xmlns="http://www.w3.org/2000/svg" viewBox="0 0 285.74 332"><defs><style>.cls-1{fill:#1d1d1b;}.cls-2{fill:none;}</style></defs><title>humidity</title><path class="cls-1" d="M382.87,292.25l-32.62-18.83A96,96,0,0,0,352,256a92.67,92.67,0,0,0-1.79-17.46l32.63-18.85a32,32,0,0,0-32-55.44l-32.94,19A95.33,95.33,0,0,0,288,165.92V128a32,32,0,0,0-64,0v37.9a95.38,95.38,0,0,0-29.94,17.35l-32.88-19a32,32,0,1,0-32,55.4l32.56,18.81a88.12,88.12,0,0,0,0,35l-32.58,18.81a32,32,0,1,0,32,55.44l32.83-19a95.77,95.77,0,0,0,30,17.42V384a32,32,0,0,0,64,0V346.08a94.64,94.64,0,0,0,30-17.39l32.92,19a32,32,0,0,0,32-55.44ZM224,256a32,32,0,1,1,32,32A32,32,0,0,1,224,256Z" transform="translate(-113.13 -84)"/><line class="cls-2" x1="7.87" x2="42.87" y2="12"/></svg>