<svg id="Layer_1" data-name="Layer 1" xmlns="http://www.w3.org/2000/svg" viewBox="0 0 416 288"><defs><style>.cls-1{fill:#1d1d1b;}</style></defs><title>wind</title><path class="cls-1" d="M431,192a47.54,47.54,0,0,0-45.06,64H79a16,16,0,0,0,0,32H431a48,48,0,0,0,0-96ZM79,224H271a48.67,48.67,0,1,0-45.06-32H79a16,16,0,0,0,0,32Zm256,96c-.94,0-1.83.21-2.79.29-.62,0-1.15-.29-1.77-.29H83.58C72.21,320,63,327.17,63,336s9.21,16,20.58,16H289.94A47.89,47.89,0,1,0,335,320Z" transform="translate(-63 -128)"/></svg>