<?xml version="1.0" encoding="utf-8"?>
<!-- Generator: Adobe Illustrator 21.1.0, SVG Export Plug-In . SVG Version: 6.00 Build 0)  -->
<svg version="1.1" id="foot" xmlns="http://www.w3.org/2000/svg" xmlns:xlink="http://www.w3.org/1999/xlink" x="0px" y="0px"
	 viewBox="0 0 100 100" style="enable-background:new 0 0 100 100;" xml:space="preserve">
<style type="text/css">
	.st0{stroke:#000000;stroke-miterlimit:10;}
</style>
<g id="right-foot">
	<g>
		<ellipse transform="matrix(0.8335 -0.5526 0.5526 0.8335 -29.5951 34.2898)" class="st0" cx="42.1" cy="66.2" rx="5.4" ry="7"/>
		<ellipse transform="matrix(0.1545 -0.988 0.988 0.1545 -41.9182 85.2087)" class="st0" cx="28.8" cy="67.1" rx="4.3" ry="3.2"/>
		<ellipse transform="matrix(0.5844 -0.8115 0.8115 0.5844 -44.0814 35.5607)" class="st0" cx="12.7" cy="60.8" rx="3.6" ry="2.7"/>
		<ellipse transform="matrix(0.5 -0.866 0.866 0.5 -43.2057 33.3511)" class="st0" cx="7.3" cy="54.1" rx="3" ry="2.3"/>
		<ellipse transform="matrix(0.4 -0.9165 0.9165 0.4 -47.5989 56.9161)" class="st0" cx="19.7" cy="64.8" rx="3.6" ry="2.7"/>
		<path class="st0" d="M30.2,59.8c0.5,0,1-0.1,1.5-0.2c1.7-0.3,3.2-0.7,4.7-1.5c1.9-1,3.4-2.7,4.3-4.6c1-2.2,1.1-4.8,0.5-7.1
			s-1.7-4.5-3.2-6.5c-1.2-1.6-2.5-2.9-3.8-4.5c-1.2-1.5-2.3-3.2-2.9-5c-0.6-1.9-0.5-4,0.4-5.7c1.1-1.9,2.3-3.6,3.5-5.4
			c1.1-1.6,1.9-3.5,2.1-5.5c0.2-2-0.2-4-1.3-5.6c-0.7-1-1.6-1.8-2.7-2.3c-2.8-1.5-6.2-1.5-9.1-0.4c-3,1.1-5.5,3.2-7.5,5.7
			s-3.5,5.3-4.8,8.2c-2.1,4.5-2.8,9.8-3.3,14.8c-0.5,5.7-0.3,11.7,2.5,16.7c1.8,3.3,4.8,6,8.2,7.5c2.1,1,4.2,1,6.5,1.2
			C27.4,59.7,28.8,59.8,30.2,59.8z"/>
	</g>
</g>
<g id="left-foot">
	<g>
		<ellipse transform="matrix(0.4323 -0.9017 0.9017 0.4323 -48.0718 102.1405)" class="st0" cx="57.1" cy="89.2" rx="7" ry="5.4"/>
		<ellipse class="st0" cx="70.8" cy="90" rx="3.2" ry="4.3"/>
		<ellipse transform="matrix(0.912 -0.4101 0.4101 0.912 -29.0093 40.4112)" class="st0" cx="79.7" cy="87.8" rx="2.7" ry="3.6"/>
		<ellipse transform="matrix(0.8335 -0.5526 0.5526 0.8335 -31.8815 61.8631)" class="st0" cx="86.7" cy="83.8" rx="2.7" ry="3.6"/>
		<ellipse transform="matrix(0.8335 -0.5526 0.5526 0.8335 -27.2182 63.8284)" class="st0" cx="92.3" cy="77.1" rx="2.3" ry="3"/>
		<path class="st0" d="M69.2,82.8c-0.5,0-1-0.1-1.5-0.2c-1.7-0.3-3.3-0.7-4.8-1.5c-1.9-1-3.5-2.7-4.3-4.6c-1-2.2-1.1-4.8-0.5-7.1
			c0.6-2.4,1.7-4.5,3.2-6.5c1.2-1.6,2.6-2.9,3.8-4.5c1.2-1.6,2.4-3.2,2.9-5c0.5-1.8,0.5-4-0.4-5.7c-1.1-1.9-2.4-3.6-3.5-5.4
			c-1.1-1.6-1.9-3.5-2.1-5.5c-0.2-2,0.2-4,1.3-5.6c0.7-1,1.7-1.8,2.7-2.3c2.8-1.5,6.3-1.5,9.2-0.4c3,1.1,5.5,3.2,7.5,5.7
			s3.5,5.3,4.9,8.2c2.2,4.5,2.8,9.8,3.3,14.8c0.5,5.7,0.3,11.7-2.5,16.7c-1.9,3.3-4.8,6-8.3,7.5c-2.2,1-4.2,1-6.5,1.2
			C72,82.7,70.6,82.8,69.2,82.8z"/>
	</g>
</g>
</svg>
